<svg id="Calque_1" data-name="Calque 1" xmlns="http://www.w3.org/2000/svg" xmlns:xlink="http://www.w3.org/1999/xlink" viewBox="0 0 522.52 348.13"><defs><style>.cls-1{fill:none;}.cls-2{clip-path:url(#clip-path);}.cls-3{fill:#231f20;}</style><clipPath id="clip-path"><rect class="cls-1" width="522.52" height="348.13"/></clipPath></defs><title>Plan de travail 2</title><g class="cls-2"><path class="cls-3" d="M53,149.66V51.41H181.48a6.2,6.2,0,0,1,5,2.15l16.91,16.91a7,7,0,0,1,2.15,4.89l-.52,39a6.58,6.58,0,0,1-2.15,5.46L175.68,147a8.5,8.5,0,0,1-5,2.16Zm0,147.06V199H170.72c1.43,0,3.28,1,4.95,2.67l27.66,27.66a7.39,7.39,0,0,1,2.16,4.95v38.43c0,1.69-.67,2.94-2.67,4.94L185.9,294.57l-.3.34c-.76,1-2.75,1.81-4.62,1.81ZM251.6,119a32,32,0,0,1-9.81,23.36l-32,31.44,32,32c6.61,6.6,9.83,14.08,9.83,22.87v50.22a33.52,33.52,0,0,1-9.29,23.37L212.05,332c-6.63,6.61-14.12,9.83-22.89,9.83H53V303H181c2.91,0,7.12-1.1,9.53-4.15l16.77-16.77c2.35-2.35,4.53-5.12,4.53-9.41V234.28a13.66,13.66,0,0,0-4-9.41L180.14,197.2c-2.92-2.91-6.26-4.52-9.42-4.52H53V156l117.77-.53a14.8,14.8,0,0,0,9.42-4l27.14-27.15a12.85,12.85,0,0,0,4-9.89l.53-39a13.27,13.27,0,0,0-4-9.4L190.89,49.1a12.44,12.44,0,0,0-9.41-4H46.63V296.72H6.32V6.32H188.66c9.24,0,16.67,3.12,23.39,9.83l30.24,30.23c6.53,6.53,9.31,13.37,9.31,22.89ZM216.51,11.68C208.64,3.82,199.53,0,188.66,0H0V303H46.63v45.09H189.16c10.53,0,19.48-3.82,27.33-11.67l30.35-29.83a40.23,40.23,0,0,0,11.08-27.77V228.64c0-10.55-3.83-19.49-11.69-27.34l-27.46-27.48,27.46-27A38.16,38.16,0,0,0,257.92,119V69.27c0-11.2-3.45-19.64-11.16-27.35Z"/></g><path class="cls-3" d="M348.3,303H516.21v38.78H348.3ZM301.67,6.32H342v290.4H301.67ZM295.35,0V300.87h3.16V303H342V345h2.14v3.16H522.52V296.72H348.3V0Z"/></svg>